<?xml version="1.0" encoding="UTF-8" standalone="no"?>
<svg
   height="22"
   viewBox="0 0 22 22"
   width="22"
   fill="#000000"
   version="1.1"
   id="svg928"
   sodipodi:docname="bksmart.svg"
   inkscape:version="1.1 (c4e8f9e, 2021-05-24)"
   inkscape:export-filename="/Users/jordan/Downloads/Projects/Web/bksmart/icon/bksmart.png"
   inkscape:export-xdpi="8192"
   inkscape:export-ydpi="8192"
   xmlns:inkscape="http://www.inkscape.org/namespaces/inkscape"
   xmlns:sodipodi="http://sodipodi.sourceforge.net/DTD/sodipodi-0.dtd"
   xmlns="http://www.w3.org/2000/svg"
   xmlns:svg="http://www.w3.org/2000/svg">
  <defs
     id="defs932" />
  <sodipodi:namedview
     id="namedview930"
     pagecolor="#ffffff"
     bordercolor="#666666"
     borderopacity="1.0"
     inkscape:pageshadow="2"
     inkscape:pageopacity="0.0"
     inkscape:pagecheckerboard="0"
     showgrid="false"
     inkscape:zoom="14.114201"
     inkscape:cx="8.3957997"
     inkscape:cy="12.009182"
     inkscape:window-width="1440"
     inkscape:window-height="847"
     inkscape:window-x="0"
     inkscape:window-y="25"
     inkscape:window-maximized="0"
     inkscape:current-layer="svg928"
     width="22px" />
  <g
     id="g2818"
     transform="translate(2.000045,4.395e-4)"
     style="fill:#606367;fill-opacity:1">
    <path
       id="path1857"
       d="m 2,3.9991214 c -1.1000001,0 -2,0.9 -2,2 V 21.999121 l 7,-3 7,3 V 18.920996 L 9.7539062,14.67295 c -1.94,1.290001 -4.5790635,1.071329 -6.2890625,-0.638672 -1.950001,-1.950001 -1.950001,-5.1203119 0,-7.0703129 C 4.4398427,5.9889651 5.720001,5.5010745 7,5.5010745 c 1.279999,0 2.5601572,0.4878896 3.535156,1.4628906 1.710001,1.71 1.918673,4.3490649 0.638672,6.2890629 L 14,16.0792 V 5.9991214 c 0,-1.1 -0.9,-2 -2,-2 z m 4.9941406,3.5039062 c -1.656855,0 -3,1.343145 -3,3.0000004 0,1.656854 1.343145,3 3,3 1.656853,0 3,-1.343146 3,-3 0,-1.6568554 -1.343147,-3.0000004 -3,-3.0000004 z"
       style="fill:#606367;fill-opacity:1" />
    <path
       d="m 15.99991,17 2,1 V 2 c 0,-1.1 -0.9,-2 -2,-2 H 5.9899099 c -1.1,0 -1.99,0.9 -1.99,2 H 13.99991 c 1.1,0 2,0.9 2,2.0000005 z"
       id="path926"
       style="fill:#606367;fill-opacity:1" />
  </g>
</svg>
